<?xml version="1.0" encoding="UTF-8"?>
<svg width="451px" height="512px" viewBox="0 0 451 512" version="1.1" xmlns="http://www.w3.org/2000/svg" xmlns:xlink="http://www.w3.org/1999/xlink">
    <!-- Generator: Sketch 53.2 (72643) - https://sketchapp.com -->
    <title>css</title>
    <desc>Created with Sketch.</desc>
    <g id="Page-1" stroke="none" stroke-width="1" fill="none" fill-rule="evenodd">
        <g id="css" fill-rule="nonzero">
            <polyline id="Path" fill="#0C73B8" points="41 460 0 0 451 0 410 460 225 512"></polyline>
            <polyline id="Path" fill="#30A9DC" points="226 472 375 431 410 37 226 37"></polyline>
            <path d="M226,208 L94,208 L99,265 L226,265 L226,208 Z M226,94 L84,94 L89,150 L226,150 L226,94 Z M226,355 L102,322 L109,382 L226,414 L226,355 Z" id="Shape" fill="#ECEDEE"></path>
            <polygon id="Path" fill="#FFFFFF" points="226 265 295 265 288 338 226 355 226 414 341 382 367 94 226 94 226 150 306 150 300 208 226 208"></polygon>
        </g>
    </g>
</svg>