<?xml version="1.0" encoding="UTF-8"?>
<svg width="451px" height="512px" viewBox="0 0 451 512" version="1.1" xmlns="http://www.w3.org/2000/svg" xmlns:xlink="http://www.w3.org/1999/xlink">
    <!-- Generator: Sketch 53.2 (72643) - https://sketchapp.com -->
    <title>js</title>
    <desc>Created with Sketch.</desc>
    <g id="Page-1" stroke="none" stroke-width="1" fill="none" fill-rule="evenodd">
        <g id="js" fill-rule="nonzero">
            <polyline id="Path" fill="#0C73B8" points="41 460 0 0 451 0 410 460 225 512"></polyline>
            <polyline id="Path" fill="#30A9DC" points="226 472 375 431 410 37 226 37"></polyline>
            <path d="M226,94 L113,94 L102,265 L226,265 L226,208 L160,208 L165,150 L226,150 L226,94 Z M226,355 L162,338 L158,293 L102,293 L109,382 L226,414 L226,355 Z" id="Shape" fill="#ECEDEE"></path>
            <path d="M226,265 L295,265 L288,338 L226,355 L226,414 L341,382 L357,208 L226,208 L226,265 Z M226,94 L339,94 L357,180 L301,180 L293,150 L226,150 L226,94 Z" id="Shape" fill="#FFFFFF"></path>
        </g>
    </g>
</svg>